<svg width="1171" height="568" viewBox="0 0 1171 568" fill="none" xmlns="http://www.w3.org/2000/svg">
<rect x="55.0038" y="174.61" width="875.406" height="306.378" rx="78.8065" fill="white"/>
<rect x="55.0038" y="174.61" width="875.406" height="306.378" rx="78.8065" fill="white"/>
<rect x="55.0038" y="174.61" width="875.406" height="306.378" rx="78.8065" fill="white"/>
<rect x="55.0038" y="174.61" width="875.406" height="306.378" rx="78.8065" fill="white"/>
<rect x="55.0038" y="174.61" width="875.406" height="306.378" rx="78.8065" stroke="black" stroke-width="13.4672"/>
<path d="M230.539 396.225L193.559 260.984H210.2L238.464 371.131H239.784L268.576 260.984H287.066L315.858 371.131H317.178L345.442 260.984H362.083L325.103 396.225H308.197L278.349 288.455H277.293L247.445 396.225H230.539ZM412.138 398.338C402.981 398.338 394.946 396.159 388.035 391.8C381.167 387.442 375.796 381.345 371.922 373.509C368.092 365.672 366.177 356.515 366.177 346.038C366.177 335.472 368.092 326.249 371.922 318.369C375.796 310.488 381.167 304.369 388.035 300.011C394.946 295.652 402.981 293.473 412.138 293.473C421.295 293.473 429.307 295.652 436.175 300.011C443.086 304.369 448.457 310.488 452.287 318.369C456.162 326.249 458.099 335.472 458.099 346.038C458.099 356.515 456.162 365.672 452.287 373.509C448.457 381.345 443.086 387.442 436.175 391.8C429.307 396.159 421.295 398.338 412.138 398.338ZM412.138 384.338C419.093 384.338 424.817 382.555 429.307 378.99C433.797 375.424 437.121 370.735 439.278 364.924C441.436 359.113 442.514 352.817 442.514 346.038C442.514 339.258 441.436 332.941 439.278 327.085C437.121 321.23 433.797 316.498 429.307 312.888C424.817 309.278 419.093 307.473 412.138 307.473C405.182 307.473 399.459 309.278 394.968 312.888C390.478 316.498 387.154 321.23 384.997 327.085C382.84 332.941 381.761 339.258 381.761 346.038C381.761 352.817 382.84 359.113 384.997 364.924C387.154 370.735 390.478 375.424 394.968 378.99C399.459 382.555 405.182 384.338 412.138 384.338ZM481.888 396.225V294.794H496.944V310.114H498.001C499.85 305.096 503.196 301.023 508.038 297.898C512.881 294.772 518.34 293.209 524.415 293.209C525.56 293.209 526.99 293.231 528.707 293.275C530.424 293.319 531.723 293.385 532.603 293.473V309.322C532.075 309.19 530.864 308.992 528.971 308.727C527.122 308.419 525.163 308.265 523.094 308.265C518.164 308.265 513.761 309.3 509.887 311.369C506.057 313.394 503.019 316.212 500.774 319.822C498.573 323.387 497.472 327.46 497.472 332.038V396.225H481.888ZM566.661 260.984V396.225H551.077V260.984H566.661ZM633.506 398.338C625.053 398.338 617.591 396.203 611.12 391.933C604.648 387.618 599.586 381.543 595.932 373.707C592.278 365.826 590.451 356.515 590.451 345.774C590.451 335.12 592.278 325.875 595.932 318.039C599.586 310.202 604.67 304.149 611.186 299.879C617.701 295.608 625.23 293.473 633.77 293.473C640.374 293.473 645.591 294.574 649.421 296.775C653.295 298.932 656.244 301.398 658.269 304.171C660.339 306.901 661.945 309.146 663.09 310.907H664.411V260.984H679.995V396.225H664.939V380.64H663.09C661.945 382.489 660.317 384.823 658.203 387.64C656.09 390.414 653.075 392.901 649.157 395.102C645.238 397.259 640.022 398.338 633.506 398.338ZM635.619 384.338C641.871 384.338 647.153 382.71 651.468 379.452C655.782 376.15 659.062 371.594 661.307 365.782C663.552 359.927 664.675 353.17 664.675 345.509C664.675 337.937 663.574 331.312 661.373 325.633C659.172 319.91 655.914 315.463 651.6 312.293C647.285 309.08 641.959 307.473 635.619 307.473C629.016 307.473 623.513 309.168 619.11 312.558C614.752 315.903 611.472 320.46 609.271 326.227C607.114 331.95 606.035 338.378 606.035 345.509C606.035 352.729 607.136 359.289 609.337 365.188C611.582 371.043 614.884 375.71 619.242 379.188C623.645 382.621 629.104 384.338 635.619 384.338ZM782.549 317.51L768.549 321.472C767.669 319.139 766.37 316.872 764.653 314.671C762.98 312.426 760.691 310.576 757.785 309.124C754.88 307.671 751.16 306.945 746.625 306.945C740.418 306.945 735.245 308.375 731.107 311.237C727.013 314.054 724.966 317.642 724.966 322.001C724.966 325.875 726.374 328.934 729.192 331.18C732.009 333.425 736.412 335.296 742.399 336.793L757.455 340.491C766.524 342.692 773.282 346.06 777.728 350.594C782.174 355.085 784.398 360.874 784.398 367.962C784.398 373.773 782.725 378.968 779.379 383.546C776.077 388.124 771.455 391.734 765.511 394.376C759.568 397.017 752.657 398.338 744.776 398.338C734.431 398.338 725.868 396.093 719.088 391.602C712.309 387.112 708.016 380.552 706.211 371.924L721.003 368.226C722.412 373.685 725.076 377.779 728.994 380.508C732.956 383.238 738.129 384.603 744.512 384.603C751.776 384.603 757.543 383.062 761.813 379.98C766.128 376.854 768.285 373.112 768.285 368.754C768.285 365.232 767.052 362.282 764.587 359.905C762.122 357.484 758.336 355.679 753.229 354.49L736.324 350.528C727.035 348.327 720.211 344.915 715.853 340.293C711.538 335.626 709.381 329.793 709.381 322.793C709.381 317.07 710.988 312.007 714.202 307.605C717.459 303.203 721.884 299.747 727.475 297.237C733.11 294.728 739.493 293.473 746.625 293.473C756.663 293.473 764.543 295.674 770.266 300.077C776.033 304.479 780.127 310.29 782.549 317.51Z" fill="black"/>
<circle cx="761.531" cy="164.184" r="80.8031" transform="rotate(-10.5 761.531 164.184)" fill="#3ECCC3" stroke="black" stroke-width="13.4672"/>
<circle cx="921.791" cy="225.22" r="139.722" transform="rotate(-10.5 921.791 225.22)" fill="#734ACA" stroke="black" stroke-width="13.4672"/>
<path d="M1145.02 184.942C1150.41 185.349 1154.41 185.984 1157.13 186.739C1154.86 188.42 1151.35 190.448 1146.47 192.758C1135.53 197.934 1119.11 203.885 1098.26 210.215C1056.64 222.848 998.311 236.719 933.155 248.796C867.998 260.872 808.569 268.826 765.192 271.945C743.46 273.507 725.994 273.837 713.927 272.925C708.542 272.517 704.539 271.882 701.816 271.127C704.087 269.446 707.597 267.419 712.478 265.108C723.417 259.932 739.841 253.981 760.689 247.651C802.303 235.018 860.635 221.147 925.792 209.071C990.949 196.994 1050.38 189.04 1093.75 185.921C1115.49 184.359 1132.95 184.029 1145.02 184.942Z" stroke="black" stroke-width="13.4672"/>
<circle cx="959.938" cy="329.434" r="80.8031" transform="rotate(-10.5 959.938 329.434)" fill="#E14C4C" stroke="black" stroke-width="13.4672"/>
<circle cx="1036.78" cy="78.9281" r="60.6023" transform="rotate(-10.5 1036.78 78.9281)" fill="#EFC73B" stroke="black" stroke-width="13.4672"/>
<circle cx="79.0069" cy="172.569" r="60.6023" transform="rotate(-10.5 79.0069 172.569)" fill="#DE91D6" stroke="black" stroke-width="13.4672"/>
<circle cx="112.651" cy="455.356" r="89.4694" transform="rotate(-10.5 112.651 455.356)" fill="#63DF76" stroke="black" stroke-width="13.4672"/>
<rect x="1047.36" y="170.65" width="42.7716" height="266.459" rx="20.2008" transform="rotate(79.5 1047.36 170.65)" fill="#734ACA"/>
</svg>
