<svg width="1247" height="678" viewBox="0 0 1247 678" fill="none" xmlns="http://www.w3.org/2000/svg">
<rect x="101.004" y="262.61" width="875.406" height="306.378" rx="78.8065" stroke="black" stroke-width="13.4672"/>
<path d="M233.419 483.714H226.166L180.979 377.719C179.491 374.247 177.632 372.14 175.4 371.396C173.169 370.652 169.883 370.962 165.544 372.326C165.049 372.45 164.429 372.698 163.685 373.07L161.825 369.165L164.243 368.235C167.342 367.243 169.945 366.375 172.053 365.632C174.284 364.888 176.268 364.144 178.004 363.4L193.066 357.077C194.678 356.458 196.537 355.59 198.645 354.474C200.752 353.358 203.232 352.057 206.083 350.569L208.315 349.453C209.306 352.057 209.616 353.482 209.244 353.73C208.872 353.854 208.438 354.04 207.943 354.288C203.976 356.52 201.496 358.689 200.504 360.797C199.513 362.904 199.761 365.693 201.248 369.165L234.72 448.754L253.316 405.054L241.601 377.719C240.113 374.247 238.254 372.14 236.022 371.396C233.791 370.652 230.505 370.962 226.166 372.326C225.67 372.45 225.051 372.698 224.307 373.07L222.447 369.165L224.865 368.235C227.964 367.243 230.567 366.375 232.675 365.632C234.906 364.888 236.89 364.144 238.625 363.4L253.688 357.077C255.3 356.458 257.159 355.59 259.267 354.474C261.374 353.358 263.854 352.057 266.705 350.569L268.936 349.453C269.928 352.057 270.238 353.482 269.866 353.73C269.494 353.854 269.06 354.04 268.564 354.288C264.597 356.52 262.118 358.689 261.126 360.797C260.134 362.904 260.382 365.693 261.87 369.165L295.342 448.754L328.443 370.652C329.93 367.057 330.178 364.268 329.186 362.284C328.195 360.177 325.653 358.069 321.562 355.962C321.19 355.714 320.632 355.342 319.889 354.846L321.376 350.941L323.608 352.057C329.186 355.156 333.525 357.325 336.625 358.565L342.761 361.169C344.497 361.912 346.418 362.656 348.526 363.4C350.757 364.144 353.423 365.012 356.522 366.003L358.939 366.933C357.7 369.537 356.894 370.776 356.522 370.652C356.15 370.404 355.716 370.218 355.22 370.094C350.881 368.731 347.596 368.421 345.365 369.165C343.133 369.909 341.274 372.016 339.786 375.487L294.041 483.714H286.788L260.01 420.861L233.419 483.714ZM450.703 434.621C450.703 440.696 449.463 446.461 446.984 451.915C444.629 457.37 441.281 462.205 436.942 466.42C432.727 470.511 427.645 473.796 421.694 476.276C415.743 478.631 409.235 479.809 402.169 479.809C395.474 479.809 389.152 478.817 383.201 476.834C377.25 474.726 372.044 471.813 367.581 468.094C363.242 464.374 359.77 459.912 357.167 454.705C354.688 449.498 353.448 443.671 353.448 437.225C353.448 431.15 354.626 425.386 356.981 419.931C359.46 414.476 362.87 409.703 367.209 405.612C371.548 401.397 376.692 398.112 382.643 395.756C388.594 393.277 395.102 392.037 402.169 392.037C408.863 392.037 415.123 393.091 420.95 395.199C426.901 397.182 432.046 400.033 436.385 403.753C440.847 407.472 444.319 411.935 446.798 417.141C449.401 422.348 450.703 428.175 450.703 434.621ZM429.876 435.923C429.504 431.584 428.45 427.493 426.715 423.65C425.103 419.683 422.996 416.274 420.392 413.422C417.789 410.571 414.69 408.34 411.094 406.728C407.499 404.992 403.532 404.125 399.193 404.125C395.102 404.125 391.445 404.992 388.222 406.728C384.999 408.34 382.271 410.571 380.04 413.422C377.808 416.274 376.197 419.683 375.205 423.65C374.213 427.493 373.903 431.584 374.275 435.923C374.771 440.262 375.825 444.415 377.436 448.382C379.048 452.225 381.155 455.635 383.759 458.61C386.486 461.461 389.647 463.755 393.243 465.49C396.838 467.102 400.805 467.908 405.144 467.908C409.235 467.908 412.892 467.102 416.115 465.49C419.339 463.755 422.004 461.461 424.111 458.61C426.343 455.635 427.954 452.225 428.946 448.382C429.938 444.415 430.248 440.262 429.876 435.923ZM415.557 436.667C409.731 439.146 405.578 443.299 403.098 449.126H401.239C398.759 443.299 394.606 439.146 388.78 436.667V434.807C394.606 432.328 398.759 428.175 401.239 422.348H403.098C405.578 428.175 409.731 432.328 415.557 434.807V436.667ZM501.85 435.365C501.85 435.365 502.656 435.427 504.267 435.551C505.879 435.675 507.305 435.737 508.544 435.737C512.883 435.737 516.665 434.25 519.888 431.274C523.235 428.175 524.909 423.96 524.909 418.629C524.909 414.538 523.669 410.943 521.189 407.844C518.834 404.62 515.053 403.009 509.846 403.009C507.367 403.009 505.383 403.257 503.895 403.753C502.532 404.125 501.85 405.364 501.85 407.472V435.365ZM531.975 436.853C534.33 440.2 536.748 443.795 539.227 447.638C541.707 451.358 544 454.829 546.108 458.052C548.339 461.275 550.199 464.065 551.686 466.42C553.174 468.651 554.042 469.953 554.29 470.325C554.91 471.193 555.591 472.247 556.335 473.486C557.203 474.726 557.947 475.904 558.567 477.02C559.311 478.135 559.806 479.127 560.054 479.995C560.426 480.987 560.426 481.606 560.054 481.854C559.187 482.598 557.947 482.66 556.335 482.04C554.848 481.421 552.492 479.685 549.269 476.834L510.404 442.246C508.792 442.122 507.243 442.06 505.755 442.06C504.391 441.936 503.09 441.812 501.85 441.688V462.515C501.85 464.374 501.912 465.986 502.036 467.35C502.284 468.589 502.78 469.643 503.524 470.511C504.267 471.255 505.321 471.875 506.685 472.371C508.049 472.866 509.846 473.238 512.078 473.486C512.697 473.61 513.379 473.672 514.123 473.672L514.309 477.949L511.706 477.763C508.482 477.515 506.003 477.267 504.267 477.02C502.532 476.896 500.796 476.834 499.061 476.834H484.556C482.82 476.834 481.085 476.896 479.349 477.02C477.614 477.267 475.134 477.515 471.911 477.763L469.308 477.949L469.494 473.672C470.237 473.672 470.919 473.61 471.539 473.486C473.771 473.238 475.568 472.866 476.932 472.371C478.295 471.875 479.349 471.255 480.093 470.511C480.837 469.643 481.271 468.589 481.395 467.35C481.643 465.986 481.767 464.374 481.767 462.515V409.331C481.767 407.472 481.643 405.922 481.395 404.682C481.271 403.319 480.837 402.265 480.093 401.521C479.349 400.653 478.295 399.971 476.932 399.476C475.568 398.98 473.771 398.608 471.539 398.36C470.919 398.236 470.237 398.174 469.494 398.174L469.308 393.897L471.911 394.083C475.134 394.331 477.614 394.579 479.349 394.827C481.085 394.951 482.386 395.013 483.254 395.013C484.122 395.013 485.796 395.013 488.275 395.013C490.879 394.889 493.854 394.827 497.201 394.827C500.672 394.703 504.081 394.641 507.429 394.641C510.9 394.517 513.441 394.455 515.053 394.455C524.475 394.455 531.789 396.5 536.996 400.591C542.327 404.682 544.992 409.579 544.992 415.282C544.992 419.993 543.752 424.208 541.273 427.927C538.793 431.646 535.694 434.621 531.975 436.853ZM586.796 476.834C585.06 476.834 583.325 476.896 581.589 477.02C579.853 477.267 577.374 477.515 574.151 477.763L571.547 477.949L571.733 473.672C572.477 473.672 573.159 473.61 573.779 473.486C576.01 473.238 577.808 472.866 579.172 472.371C580.535 471.875 581.589 471.255 582.333 470.511C583.077 469.643 583.511 468.589 583.635 467.35C583.883 465.986 584.006 464.374 584.006 462.515V409.331C584.006 407.472 583.883 405.922 583.635 404.682C583.511 403.319 583.077 402.265 582.333 401.521C581.589 400.653 580.535 399.971 579.172 399.476C577.808 398.98 576.01 398.608 573.779 398.36C573.159 398.236 572.477 398.174 571.733 398.174L571.547 393.897L574.151 394.083C577.374 394.331 579.853 394.579 581.589 394.827C583.325 394.951 585.06 395.013 586.796 395.013H601.3C603.036 395.013 604.772 394.951 606.507 394.827C608.243 394.579 610.722 394.331 613.946 394.083L616.549 393.897L616.363 398.174C615.619 398.174 614.937 398.236 614.317 398.36C612.086 398.608 610.288 398.98 608.925 399.476C607.561 399.971 606.507 400.653 605.763 401.521C605.02 402.265 604.524 403.319 604.276 404.682C604.152 405.922 604.09 407.472 604.09 409.331V458.982C604.09 462.329 604.4 464.374 605.02 465.118C605.639 465.738 607.437 466.048 610.412 466.048H622.871C625.351 466.048 627.334 465.986 628.822 465.862C630.31 465.738 631.673 465.366 632.913 464.746C634.153 464.127 635.331 463.259 636.446 462.143C637.562 460.903 638.926 459.292 640.537 457.308L645 451.729H650.207C648.347 454.085 646.798 456.564 645.558 459.168C644.318 461.647 643.265 464.065 642.397 466.42C641.529 468.775 640.847 470.945 640.351 472.928C639.855 474.788 639.484 476.028 639.236 476.648C639.112 477.267 637.562 477.515 634.587 477.391C631.735 477.391 628.264 477.329 624.173 477.205C620.206 477.082 616.115 477.02 611.9 477.02C607.685 476.896 604.214 476.834 601.486 476.834H586.796ZM713.277 394.455C719.351 394.455 725.054 395.447 730.385 397.43C735.716 399.29 740.365 401.955 744.332 405.426C748.299 408.897 751.398 413.112 753.629 418.071C755.985 423.03 757.163 428.485 757.163 434.435C757.163 440.138 756.047 445.593 753.815 450.8C751.708 456.006 748.671 460.593 744.704 464.56C740.86 468.404 736.212 471.503 730.757 473.858C725.426 476.09 719.599 477.205 713.277 477.205C709.558 477.205 705.653 477.144 701.562 477.02C697.471 477.02 693.689 477.02 690.218 477.02C686.871 477.02 682.966 476.958 678.503 476.834C676.767 476.834 675.032 476.896 673.296 477.02C671.561 477.267 669.081 477.515 665.858 477.763L663.255 477.949L663.44 473.672C664.184 473.672 664.866 473.61 665.486 473.486C667.717 473.238 669.515 472.866 670.879 472.371C672.242 471.875 673.296 471.255 674.04 470.511C674.784 469.643 675.218 468.589 675.342 467.35C675.59 465.986 675.714 464.374 675.714 462.515V409.331C675.714 407.472 675.59 405.922 675.342 404.682C675.218 403.319 674.784 402.265 674.04 401.521C673.296 400.653 672.242 399.971 670.879 399.476C669.515 398.98 667.717 398.608 665.486 398.36C664.866 398.236 664.184 398.174 663.44 398.174L663.255 393.897L665.858 394.083C669.081 394.331 671.561 394.579 673.296 394.827C675.032 394.951 676.333 395.013 677.201 395.013C678.069 395.013 679.805 395.013 682.408 395.013C685.135 394.889 688.359 394.827 692.078 394.827C695.797 394.703 699.64 394.641 703.607 394.641C707.574 394.517 710.797 394.455 713.277 394.455ZM736.335 434.621C736.335 430.158 735.592 426.129 734.104 422.534C732.74 418.939 730.819 415.902 728.339 413.422C725.984 410.819 723.195 408.835 719.971 407.472C716.872 405.984 713.525 405.24 709.93 405.24C709.434 405.24 708.504 405.302 707.14 405.426C705.901 405.426 704.537 405.488 703.049 405.612C701.562 405.612 700.136 405.674 698.772 405.798C697.409 405.798 696.417 405.798 695.797 405.798V456.75C695.797 460.221 696.665 462.639 698.4 464.003C700.26 465.242 704.103 465.862 709.93 465.862C713.773 465.862 717.306 465.056 720.529 463.445C723.752 461.709 726.542 459.416 728.897 456.564C731.253 453.589 733.05 450.242 734.29 446.523C735.654 442.68 736.335 438.712 736.335 434.621ZM839.498 455.263C839.498 458.238 838.692 461.213 837.08 464.189C835.593 467.04 833.423 469.643 830.572 471.999C827.845 474.23 824.559 476.09 820.716 477.577C816.873 479.065 812.596 479.809 807.885 479.809C802.307 479.809 797.472 479.065 793.381 477.577C789.29 476.09 786.19 475.036 784.083 474.416L780.55 452.287H785.013C786.5 458.61 788.856 463.321 792.079 466.42C795.302 469.395 799.641 470.883 805.096 470.883C809.807 470.883 813.588 469.829 816.439 467.722C819.291 465.614 820.716 462.577 820.716 458.61C820.716 455.015 818.981 451.791 815.509 448.94C812.038 446.089 806.769 442.865 799.703 439.27C794.248 436.419 789.909 432.824 786.686 428.485C783.587 424.146 782.037 419.559 782.037 414.724C782.037 407.906 784.393 402.451 789.104 398.36C793.938 394.145 800.385 392.037 808.443 392.037C810.923 392.037 813.154 392.223 815.138 392.595C817.121 392.967 819.043 393.401 820.902 393.897C822.762 394.393 824.559 394.827 826.295 395.199C828.154 395.447 830.2 395.509 832.431 395.385L835.221 414.352H831.502C829.146 408.897 826.171 405.302 822.576 403.567C818.981 401.707 815.385 400.777 811.79 400.777C808.071 400.777 805.096 401.769 802.864 403.753C800.757 405.612 799.703 408.092 799.703 411.191C799.703 412.679 800.199 414.104 801.191 415.468C802.307 416.708 803.608 417.885 805.096 419.001C806.707 420.117 808.443 421.171 810.303 422.162C812.286 423.154 814.146 424.146 815.881 425.138C823.816 429.477 829.704 433.878 833.547 438.341C837.514 442.68 839.498 448.32 839.498 455.263Z" fill="black"/>
<circle cx="807.531" cy="252.184" r="80.8031" transform="rotate(-10.5 807.531 252.184)" fill="#3ECCC3" stroke="black" stroke-width="13.4672"/>
<circle cx="967.791" cy="313.221" r="139.722" transform="rotate(-10.5 967.791 313.221)" fill="#734ACA" stroke="black" stroke-width="13.4672"/>
<path d="M1191.02 272.942C1196.41 273.349 1200.41 273.984 1203.13 274.739C1200.86 276.42 1197.35 278.448 1192.47 280.758C1181.53 285.934 1165.11 291.885 1144.26 298.215C1102.64 310.848 1044.31 324.72 979.155 336.796C913.998 348.872 854.569 356.827 811.192 359.945C789.46 361.507 771.994 361.837 759.927 360.925C754.542 360.517 750.539 359.882 747.816 359.127C750.087 357.446 753.597 355.419 758.478 353.108C769.417 347.932 785.841 341.981 806.69 335.651C848.303 323.018 906.635 309.147 971.792 297.071C1036.95 284.995 1096.38 277.04 1139.75 273.921C1161.49 272.359 1178.95 272.029 1191.02 272.942Z" stroke="black" stroke-width="13.4672"/>
<circle cx="1005.94" cy="417.435" r="80.8031" transform="rotate(-10.5 1005.94 417.435)" fill="#E14C4C" stroke="black" stroke-width="13.4672"/>
<circle cx="1082.78" cy="166.928" r="60.6023" transform="rotate(-10.5 1082.78 166.928)" fill="#EFC73B" stroke="black" stroke-width="13.4672"/>
<circle cx="125.007" cy="260.569" r="60.6023" transform="rotate(-10.5 125.007 260.569)" fill="#DE91D6" stroke="black" stroke-width="13.4672"/>
<circle cx="158.651" cy="543.356" r="89.4694" transform="rotate(-10.5 158.651 543.356)" fill="#63DF76" stroke="black" stroke-width="13.4672"/>
<rect x="1093.36" y="258.651" width="42.7716" height="266.459" rx="20.2008" transform="rotate(79.5 1093.36 258.651)" fill="#734ACA"/>
</svg>
