<svg width="402" height="195" viewBox="0 0 402 195" fill="none" xmlns="http://www.w3.org/2000/svg">
<rect x="18.7138" y="59.8934" width="300.67" height="105.362" rx="27.1013" stroke="white" stroke-width="4.63131"/>
<path d="M79.0196 136.205L66.3023 89.6956H72.0251L81.7447 127.575H82.1989L92.1002 89.6956H98.4589L108.36 127.575H108.814L118.534 89.6956H124.257L111.54 136.205H105.726L95.4612 99.1428H95.0979L84.8332 136.205H79.0196ZM141.471 136.931C138.322 136.931 135.559 136.182 133.182 134.683C130.82 133.184 128.973 131.087 127.641 128.393C126.323 125.698 125.665 122.549 125.665 118.945C125.665 115.312 126.323 112.14 127.641 109.43C128.973 106.72 130.82 104.616 133.182 103.117C135.559 101.618 138.322 100.869 141.471 100.869C144.62 100.869 147.375 101.618 149.737 103.117C152.114 104.616 153.961 106.72 155.278 109.43C156.61 112.14 157.276 115.312 157.276 118.945C157.276 122.549 156.61 125.698 155.278 128.393C153.961 131.087 152.114 133.184 149.737 134.683C147.375 136.182 144.62 136.931 141.471 136.931ZM141.471 132.117C143.863 132.117 145.831 131.504 147.375 130.277C148.919 129.051 150.062 127.439 150.804 125.44C151.546 123.442 151.917 121.277 151.917 118.945C151.917 116.614 151.546 114.441 150.804 112.428C150.062 110.414 148.919 108.787 147.375 107.545C145.831 106.304 143.863 105.683 141.471 105.683C139.079 105.683 137.11 106.304 135.566 107.545C134.022 108.787 132.879 110.414 132.137 112.428C131.395 114.441 131.024 116.614 131.024 118.945C131.024 121.277 131.395 123.442 132.137 125.44C132.879 127.439 134.022 129.051 135.566 130.277C137.11 131.504 139.079 132.117 141.471 132.117ZM165.457 136.205V101.323H170.635V106.591H170.999C171.634 104.866 172.785 103.465 174.45 102.39C176.116 101.315 177.993 100.778 180.082 100.778C180.476 100.778 180.968 100.785 181.558 100.801C182.149 100.816 182.596 100.838 182.898 100.869V106.319C182.717 106.274 182.3 106.205 181.649 106.115C181.013 106.009 180.34 105.956 179.628 105.956C177.933 105.956 176.419 106.311 175.086 107.023C173.769 107.719 172.724 108.688 171.952 109.93C171.195 111.156 170.817 112.556 170.817 114.131V136.205H165.457ZM194.611 89.6956V136.205H189.251V89.6956H194.611ZM217.598 136.931C214.692 136.931 212.125 136.197 209.9 134.728C207.674 133.245 205.933 131.156 204.677 128.461C203.42 125.751 202.792 122.549 202.792 118.855C202.792 115.191 203.42 112.011 204.677 109.317C205.933 106.622 207.682 104.54 209.923 103.071C212.163 101.603 214.752 100.869 217.689 100.869C219.96 100.869 221.754 101.247 223.071 102.004C224.404 102.746 225.418 103.594 226.114 104.548C226.826 105.486 227.379 106.258 227.772 106.864H228.226V89.6956H233.586V136.205H228.408V130.845H227.772C227.379 131.481 226.818 132.283 226.092 133.252C225.365 134.206 224.328 135.062 222.981 135.819C221.633 136.56 219.839 136.931 217.598 136.931ZM218.325 132.117C220.475 132.117 222.292 131.557 223.775 130.436C225.259 129.301 226.387 127.734 227.159 125.736C227.931 123.722 228.317 121.398 228.317 118.764C228.317 116.16 227.939 113.881 227.182 111.928C226.425 109.96 225.304 108.431 223.821 107.341C222.337 106.236 220.505 105.683 218.325 105.683C216.054 105.683 214.162 106.266 212.648 107.432C211.149 108.582 210.021 110.149 209.264 112.133C208.522 114.101 208.151 116.311 208.151 118.764C208.151 121.247 208.53 123.502 209.287 125.531C210.059 127.545 211.194 129.15 212.693 130.346C214.207 131.526 216.084 132.117 218.325 132.117ZM268.854 109.135L264.039 110.497C263.736 109.695 263.29 108.915 262.699 108.158C262.124 107.386 261.337 106.75 260.338 106.251C259.338 105.751 258.059 105.501 256.5 105.501C254.365 105.501 252.586 105.993 251.163 106.978C249.755 107.946 249.051 109.18 249.051 110.679C249.051 112.011 249.535 113.064 250.504 113.836C251.473 114.608 252.987 115.251 255.046 115.766L260.224 117.038C263.343 117.795 265.667 118.953 267.196 120.512C268.725 122.057 269.489 124.047 269.489 126.485C269.489 128.483 268.914 130.27 267.764 131.844C266.628 133.419 265.038 134.66 262.995 135.569C260.951 136.477 258.574 136.931 255.864 136.931C252.306 136.931 249.361 136.159 247.03 134.615C244.698 133.071 243.222 130.815 242.601 127.848L247.688 126.576C248.173 128.453 249.089 129.861 250.436 130.8C251.799 131.738 253.578 132.208 255.773 132.208C258.271 132.208 260.254 131.678 261.723 130.618C263.207 129.543 263.948 128.256 263.948 126.757C263.948 125.546 263.524 124.532 262.677 123.714C261.829 122.882 260.527 122.261 258.771 121.852L252.957 120.49C249.763 119.733 247.416 118.559 245.917 116.97C244.433 115.365 243.692 113.359 243.692 110.952C243.692 108.984 244.244 107.242 245.349 105.729C246.47 104.215 247.991 103.026 249.914 102.163C251.852 101.3 254.047 100.869 256.5 100.869C259.952 100.869 262.661 101.626 264.63 103.14C266.613 104.654 268.021 106.652 268.854 109.135Z" fill="white"/>
<path d="M288.668 51.2444C291.461 66.3367 281.506 80.8343 266.439 83.6303C251.372 86.4263 236.889 76.4636 234.096 61.3713C231.302 46.279 241.257 31.7814 256.324 28.9854C271.391 26.1894 285.874 36.1521 288.668 51.2444Z" fill="#3ECCC3" stroke="#9E9E9E" stroke-width="4.63131"/>
<path d="M363.61 68.5424C368.441 94.6376 351.228 119.708 325.172 124.543C299.115 129.379 274.073 112.149 269.242 86.0541C264.412 59.9588 281.624 34.8883 307.681 30.0531C333.737 25.2178 358.78 42.4471 363.61 68.5424Z" fill="#734ACA" stroke="#9E9E9E" stroke-width="4.63131"/>
<path d="M393.097 63.4466C394.947 63.5867 396.322 63.8052 397.257 64.0649C396.477 64.6428 395.272 65.3401 393.595 66.1347C389.838 67.9147 384.197 69.9612 377.036 72.1379C362.744 76.4824 342.708 81.2526 320.329 85.4055C297.95 89.5584 277.538 92.294 262.64 93.3664C255.175 93.9037 249.177 94.0172 245.033 93.7033C243.182 93.5632 241.808 93.3448 240.873 93.085C241.653 92.5071 242.858 91.8098 244.535 91.0152C248.292 89.2352 253.932 87.1887 261.093 85.012C275.386 80.6675 295.421 75.8973 317.8 71.7444C340.18 67.5915 360.592 64.8559 375.49 63.7835C382.954 63.2462 388.953 63.1328 393.097 63.4466Z" stroke="#9E9E9E" stroke-width="4.63131"/>
<path d="M356.815 108.074C359.608 123.166 349.653 137.664 334.586 140.46C319.519 143.256 305.036 133.293 302.243 118.201C299.449 103.108 309.404 88.6106 324.471 85.8146C339.538 83.0186 354.021 92.9814 356.815 108.074Z" fill="#E14C4C" stroke="#9E9E9E" stroke-width="4.63131"/>
<path d="M376.385 23.1914C378.48 34.5112 371.014 45.3838 359.714 47.4806C348.415 49.5774 337.553 42.1061 335.457 30.7863C333.362 19.4664 340.829 8.59378 352.128 6.49697C363.427 4.40016 374.29 11.8715 376.385 23.1914Z" fill="#EFC73B" stroke="#9E9E9E" stroke-width="4.63131"/>
<path d="M47.4259 55.4028C49.5238 66.7221 42.0589 77.5924 30.7591 79.6867C19.4592 81.781 8.59457 74.3079 6.49666 62.9886C4.39874 51.6692 11.8637 40.799 23.1635 38.7047C34.4633 36.6104 45.328 44.0834 47.4259 55.4028Z" fill="#DE91D6" stroke="#9E9E9E" stroke-width="4.63131"/>
<path d="M68.7337 150.847C71.8307 167.557 60.8108 183.606 44.1265 186.699C27.4423 189.791 11.4027 178.757 8.30572 162.047C5.2087 145.337 16.2287 129.287 32.9129 126.195C49.5971 123.103 65.6367 134.137 68.7337 150.847Z" fill="#63DF76" stroke="#9E9E9E" stroke-width="4.63131"/>
<rect width="14.7084" height="91.5242" rx="6.94697" transform="matrix(0.182017 0.983296 -0.983214 0.182454 359.554 58.5317)" fill="#734ACA"/>
</svg>
